<svg width="70" height="70" viewBox="0 0 70 70" fill="none" xmlns="http://www.w3.org/2000/svg">
<path d="M1.97325 9.58931C1.47765 9.8035 1.03525 10.2865 0.847651 10.7821C0.740551 11.0502 0.699951 17.1472 0.699951 30.5879C0.699951 49.6433 0.699951 50.0318 0.968051 50.5274C1.11575 50.8221 1.43705 51.1707 1.67855 51.3317C2.13425 51.6131 2.14755 51.6131 16.03 51.6131H29.9124V53.8111V56.0084L28.8134 56.0889C28.1967 56.1288 26.8302 56.196 25.7579 56.2359C18.8566 56.5173 13.1614 57.442 13.3224 58.2729C13.7242 60.4569 38.8633 61.3816 51.9553 59.7065C55.8012 59.2109 57.5294 58.4738 56.3107 57.8438C54.9709 57.1606 49.7314 56.4501 44.2505 56.2359C43.1787 56.196 41.8116 56.1288 41.2082 56.0889L40.096 56.0084V53.8111V51.6131H54.0056H67.902L68.3976 51.2778C69.3755 50.6079 69.3223 52.0821 69.2818 30.2799C69.2419 10.8094 69.2419 10.7555 68.9604 10.3936C68.8128 10.1927 68.518 9.89801 68.3171 9.75031L67.9553 9.4689L35.1645 9.44231C8.04295 9.415 2.30785 9.4416 1.97325 9.58931ZM64.8473 22.6947L64.8738 32.5843H58.6159H52.3578L51.8217 31.2039C50.2669 27.1971 49.7314 25.9245 49.4634 25.7096C49.0476 25.3743 48.2439 25.4149 47.8954 25.7901C47.6812 26.0176 45.1618 31.5119 44.2904 33.6427C44.2372 33.7365 43.808 32.9861 43.3125 31.9676C42.8308 30.9358 42.308 30.0111 42.1869 29.904C42.0532 29.7969 41.7046 29.7031 41.4099 29.7031C40.6728 29.7031 40.3913 30.065 39.6949 31.9676C39.3736 32.8251 39.0788 33.5223 39.0382 33.5223C38.9851 33.5223 38.355 30.4269 37.6312 26.6476C36.8941 22.8823 36.2376 19.6525 36.1704 19.4782C36.0227 19.1429 35.4333 18.781 35.0714 18.781C34.7228 18.781 34.1068 19.1961 33.9724 19.5048C33.9052 19.6658 33.1548 22.2789 32.3239 25.3071C31.4804 28.35 30.7432 30.842 30.69 30.842C30.6361 30.842 30.0069 29.7031 29.3097 28.2961C28.5992 26.8758 27.9292 25.6963 27.7822 25.6158C27.3671 25.4016 26.6434 25.4548 26.3347 25.7362C26.1877 25.8839 25.7046 26.6343 25.2762 27.4113C24.8471 28.1883 24.4587 28.8316 24.4187 28.8316C24.3788 28.8316 24.017 27.1831 23.6145 25.1734C22.9578 21.8638 22.864 21.4886 22.5287 21.1533C22.0597 20.6843 21.3226 20.6577 20.8942 21.0861C20.68 21.3136 20.1439 22.8949 18.9244 26.915L17.2627 32.4492H11.2056H5.14915V22.708C5.14915 17.3481 5.17575 12.9122 5.20305 12.8723C5.22965 12.8184 18.6571 12.7785 35.0454 12.7918L64.8206 12.8184L64.8473 22.6947ZM36.1437 32.1153C36.787 35.5054 37.3764 38.4804 37.4436 38.7219C37.5914 39.2448 38.0869 39.5927 38.6365 39.5794C39.4134 39.5661 39.6011 39.298 40.4187 37.114C40.8478 35.9884 41.2894 34.8628 41.3832 34.608L41.5842 34.139L42.4284 35.8946C43.2992 37.6768 43.6344 38.0786 44.2637 38.0786C44.9875 38.0786 45.2283 37.6768 46.944 33.7904C47.8554 31.7401 48.6458 30.0923 48.6864 30.1455C48.727 30.1994 49.1553 31.2179 49.611 32.41C50.0667 33.6028 50.5756 34.6878 50.71 34.8222C50.9648 35.0497 51.5003 35.0637 57.906 35.1302L64.8206 35.1974L64.8339 39.6466L64.8605 44.1091H35.0049H5.13585L5.14915 39.5528V35.0098L11.9161 34.9692L18.683 34.9293L19.0316 34.5275C19.313 34.2195 19.6343 33.3214 20.3987 30.7489C20.9482 28.8862 21.4305 27.412 21.4844 27.4659C21.5243 27.5198 21.7924 28.6986 22.0604 30.1056C22.3286 31.4993 22.6232 32.8258 22.7038 33.0267C22.9984 33.7638 24.2178 34.0053 24.7134 33.4152C24.8206 33.2948 25.3834 32.3435 25.9594 31.311C26.5223 30.2792 27.0179 29.4084 27.0452 29.3811C27.0585 29.3545 27.7283 30.6271 28.5061 32.1951C29.2964 33.7764 30.0468 35.1701 30.1679 35.3171C30.7846 36.0276 31.8023 35.8393 32.1915 34.9419C32.3119 34.6472 32.9552 32.4492 33.6119 30.0643C34.2551 27.6927 34.8312 25.7894 34.8712 25.8433C34.9244 25.9112 35.4871 28.7252 36.1437 32.1153ZM35.2457 45.6092C35.4333 45.7968 35.4599 47.8205 35.2855 48.1019C35.2183 48.209 35.0581 48.2629 34.9236 48.2363C34.6962 48.1964 34.6688 48.0487 34.6289 47.0036C34.6023 46.347 34.6157 45.7303 34.6555 45.6232C34.75 45.4083 35.0315 45.395 35.2457 45.6092ZM34.2006 46.7481C34.2006 46.8685 34.0802 47.2304 33.9324 47.5384C33.7449 47.9136 33.6777 48.2216 33.7449 48.4498C33.852 48.9188 34.5352 49.4683 35.0042 49.4683C35.4732 49.4683 36.1563 48.9188 36.2641 48.4498C36.3314 48.2223 36.2641 47.9136 36.0765 47.5384C35.6341 46.6137 35.7552 46.2252 36.304 46.8146C37.4835 48.1145 36.7059 50.0437 35.0042 50.0437C33.3025 50.0437 32.5247 48.1145 33.7043 46.8146C34.0262 46.4667 34.2006 46.4401 34.2006 46.7481Z" fill="#FFB800"/>
</svg>
