<svg width="98" height="124" viewBox="0 0 98 124" fill="none" xmlns="http://www.w3.org/2000/svg">
<path d="M42.5563 0.466637C36.3773 1.22768 29.9059 2.95513 25.3094 5.03539C19.5991 7.67132 14.5629 12.2388 12.2495 16.9537C9.87821 21.7858 9.93617 21.2881 9.81899 38.0083L9.73079 52.8549L7.82693 53.7331C4.48793 55.2842 1.88225 58.593 0.827634 62.5758C0.271974 64.5969 0.271974 68.6956 0.827634 70.7167C2.08637 75.4896 6.09821 79.6778 10.0811 80.2927C11.0185 80.4388 11.1937 80.6152 11.9257 82.3137C13.8586 86.7653 17.7242 92.6797 22.2628 98.0675L24.6933 100.996V111.89C24.6933 122.081 24.7223 122.813 25.22 123.251C25.7769 123.778 26.9474 123.895 27.5044 123.514C28.3826 122.929 28.4998 121.904 28.4998 113.646V105.271L32.5116 108.96C34.7368 111.01 37.665 113.528 39.0422 114.553L41.5307 116.428H48.9974H56.4642L58.8065 114.672C60.0653 113.734 62.9935 111.217 65.3069 109.108L69.4939 105.272V113.647C69.4939 121.905 69.611 122.93 70.4893 123.516C71.0751 123.925 72.3339 123.75 72.8026 123.223C73.2424 122.726 73.3003 121.525 73.3003 111.832V100.997L75.7309 98.0688C80.2694 92.681 84.135 86.7653 86.0679 82.315C86.7999 80.6165 86.9763 80.4401 87.9125 80.2939C91.8362 79.6791 95.9362 75.4328 97.195 70.631C97.7216 68.6982 97.7216 64.5691 97.166 62.5783C96.1416 58.6547 93.4767 55.2867 90.1667 53.7344L88.2628 52.8562L88.1746 38.0096C88.0574 23.6317 88.0285 23.1038 87.4136 21.0261C84.222 10.5429 74.646 3.74894 59.2438 1.05506C55.0895 0.32048 46.2456 0.0269012 42.5563 0.466637ZM59.4227 4.83002C73.478 7.49492 81.7952 13.7029 84.0494 23.2197C84.5471 25.3277 84.576 27.3198 84.576 50.5403V75.5778L83.786 77.9201C81.6188 84.2743 76.2021 92.2387 68.2074 100.908C64.8104 104.597 59.7742 109.312 57.1093 111.332L55.3819 112.62H48.9987H42.6155L41.0632 111.449C38.135 109.253 32.9513 104.362 29.4082 100.497C21.3845 91.6831 16.5524 84.5956 14.3852 78.3586L13.4188 75.5765V50.2467V24.9182L14.0929 22.5759C16.817 13.2052 25.0738 7.23158 38.6024 4.86026C43.3173 4.04 43.3463 4.03999 50.0231 4.1282C54.767 4.1849 56.9039 4.3613 59.4227 4.83002ZM9.84671 76.2506C9.72953 76.5139 7.88489 75.3132 6.94745 74.3467C2.58407 70.0123 3.31613 60.9643 8.29439 57.8017L9.61235 56.9524L9.75851 66.5574C9.84671 71.8293 9.87569 76.1926 9.84671 76.2506ZM89.8189 57.8319C92.3376 59.5884 93.8597 62.7812 93.8887 66.4995C93.9177 69.2815 93.3318 71.2434 91.8979 73.2631C91.0487 74.4349 88.8525 76.3086 88.2666 76.3086C88.1784 76.3086 88.1204 71.9742 88.1784 66.6456C88.2074 61.3448 88.3246 56.9827 88.4128 56.9827C88.501 56.9827 89.1158 57.3632 89.8189 57.8319Z" fill="#FFB800"/>
<path d="M44.8103 17.275C42.9367 17.9781 41.4424 19.1197 40.5931 20.5838C39.89 21.8136 39.7729 22.2823 39.7729 24.3323C39.7729 27.3487 40.0954 27.9044 43.9019 31.7991L46.8881 34.8735L43.6083 38.2414C41.15 40.7892 40.2428 41.9017 39.9782 42.8089C38.4259 48.0795 42.4088 53.0578 47.7386 52.5021C49.9058 52.2678 51.2817 51.3895 54.5325 48.0808L57.3146 45.2987L60.389 48.2849C64.1375 51.9162 65.1039 52.4429 67.886 52.4429C70.3165 52.4139 71.7806 51.7701 73.3619 50.0124C74.6497 48.6062 75.1776 47.0841 75.1776 44.9761C75.1486 42.6628 74.2994 41.1987 70.8734 37.7437L67.9162 34.7273L71.167 31.4475C74.6812 27.8162 75.1789 26.909 75.1789 24.1559C75.1209 18.9433 69.3514 15.312 64.7246 17.6253C64.2269 17.8886 62.3823 19.4989 60.6548 21.1974L57.5212 24.3008L54.3586 21.2264C52.6312 19.5279 50.6983 17.9176 50.0834 17.6241C48.5588 16.9235 46.1863 16.7483 44.8103 17.275ZM48.647 21.0815C50.023 21.8136 71.1947 43.2777 71.4001 44.1861C71.957 46.4415 70.2296 48.7839 68.0032 48.7839C67.3593 48.7839 66.4811 48.6087 66.0413 48.3744C65.6016 48.14 60.36 43.0446 54.3863 37.0129C42.7024 25.271 42.7616 25.3579 43.5226 23.1038C44.1665 21.0815 46.7432 20.0861 48.647 21.0815ZM70.4324 21.7556C71.516 22.8392 71.8084 24.5667 71.1645 25.8254C70.9012 26.2941 69.466 27.9044 67.9729 29.3975L65.2501 32.0914L62.6141 29.4555L59.9795 26.8208L62.1757 24.5956C65.5726 21.1407 66.4219 20.5838 68.1203 20.7589C69.2027 20.8471 69.7596 21.0815 70.4324 21.7556ZM51.6043 45.7082L48.5009 48.7826H47.0078C45.1631 48.7826 43.9044 47.8452 43.4357 46.1467C42.967 44.4482 43.6121 43.2777 46.7155 40.0848L49.4093 37.3317L52.0742 39.9966L54.7076 42.6338L51.6043 45.7082Z" fill="#FFB800"/>
</svg>
