<?xml version="1.0" encoding="utf-8"?>
<!-- Generator: Adobe Illustrator 27.5.0, SVG Export Plug-In . SVG Version: 6.00 Build 0)  -->
<svg version="1.1" xmlns="http://www.w3.org/2000/svg" xmlns:xlink="http://www.w3.org/1999/xlink" x="0px" y="0px"
	 viewBox="0 0 500 500" style="enable-background:new 0 0 500 500;" xml:space="preserve">
<g id="BACKGROUND">
	<rect style="fill:#D5F0EF;" width="500" height="500"/>
	<ellipse style="fill-rule:evenodd;clip-rule:evenodd;fill:#E7E7E7;" cx="250" cy="378" rx="180.5" ry="6"/>
</g>
<g id="OBJECTS">
	<g>
		<path style="fill-rule:evenodd;clip-rule:evenodd;fill:#5F4847;" d="M216.008,198.592h59.113c6.105,0,11.1,4.995,11.1,11.101
			v52.533c0,6.105-4.995,11.101-11.1,11.101h-59.113c-6.105,0-11.1-4.995-11.1-11.101v-52.533
			C204.907,203.587,209.902,198.592,216.008,198.592z"/>
		<path style="fill-rule:evenodd;clip-rule:evenodd;fill:#404041;" d="M225.55,142.089c-10.57,16.895,2.809,49.882,2.809,49.763
			c0-2.123,28.887-2.692,28.887-0.556c0,0.119,13.148-28.316,6.028-45.919c-2.062,0.563-18.271,5.706-22.909,5.613
			C235.727,151.084,227.612,142.652,225.55,142.089z"/>
		<path style="fill-rule:evenodd;clip-rule:evenodd;fill:#F49869;" d="M226.534,160.29c1.152,0,2.196,1.841,2.331,4.111
			c0.135,2.271-0.69,4.111-1.842,4.111c-1.152,0-2.196-1.841-2.331-4.111C224.556,162.13,225.381,160.29,226.534,160.29z"/>
		<g>
			<g>
				<rect x="319.738" y="221.429" style="fill-rule:evenodd;clip-rule:evenodd;fill:#A6BFC1;" width="94.274" height="147.463"/>
				<rect x="326.276" y="228.456" style="fill-rule:evenodd;clip-rule:evenodd;fill:#8A9FA0;" width="81.198" height="43.645"/>
				<rect x="326.276" y="274.063" style="fill-rule:evenodd;clip-rule:evenodd;fill:#8A9FA0;" width="81.198" height="43.646"/>
				<rect x="326.276" y="319.67" style="fill-rule:evenodd;clip-rule:evenodd;fill:#8A9FA0;" width="81.198" height="43.646"/>
				<rect x="352.084" y="237.51" style="fill-rule:evenodd;clip-rule:evenodd;fill:#4D494A;" width="28.556" height="10.81"/>
				<path style="fill-rule:evenodd;clip-rule:evenodd;fill:#0B0200;" d="M356.061,241.799h20.602c0.803,0,1.461,0.517,1.461,1.149
					v2.838c0,0.632-0.658,1.149-1.461,1.149h-20.602c-0.803,0-1.462-0.517-1.462-1.149v-2.838
					C354.599,242.316,355.258,241.799,356.061,241.799z"/>
				<rect x="352.084" y="281.291" style="fill-rule:evenodd;clip-rule:evenodd;fill:#4D494A;" width="28.556" height="10.811"/>
				<path style="fill-rule:evenodd;clip-rule:evenodd;fill:#0B0200;" d="M355.5,285.581h20.605c0.8,0,1.459,0.516,1.459,1.148v2.839
					c0,0.631-0.659,1.148-1.459,1.148H355.5c-0.805,0-1.46-0.516-1.46-1.148v-2.839C354.04,286.098,354.695,285.581,355.5,285.581z"
					/>
				<rect x="352.21" y="326.425" style="fill-rule:evenodd;clip-rule:evenodd;fill:#4D494A;" width="28.558" height="10.81"/>
				<path style="fill-rule:evenodd;clip-rule:evenodd;fill:#0B0200;" d="M356.061,330.715h20.602c0.803,0,1.461,0.517,1.461,1.149
					v2.838c0,0.631-0.658,1.149-1.461,1.149h-20.602c-0.803,0-1.462-0.518-1.462-1.149v-2.838
					C354.599,331.232,355.258,330.715,356.061,330.715z"/>
			</g>
			<g>
				<g>
					<rect x="337.351" y="181.09" style="fill-rule:evenodd;clip-rule:evenodd;fill:#52647C;" width="8.047" height="40.339"/>
					<rect x="336.141" y="181.09" style="fill-rule:evenodd;clip-rule:evenodd;fill:#52647C;" width="8.047" height="40.339"/>
					<rect x="336.767" y="181.09" style="fill-rule:evenodd;clip-rule:evenodd;fill:#677C99;" width="8.047" height="40.339"/>
				</g>
				<rect x="337.65" y="183.02" style="fill-rule:evenodd;clip-rule:evenodd;fill:#FFFFFF;" width="6.24" height="24.201"/>
				<path style="fill-rule:evenodd;clip-rule:evenodd;fill:#FFFFFF;" d="M340.77,218.44c-1.265,0-2.3-1.035-2.3-2.3
					c0-1.265,1.035-2.3,2.3-2.3c1.265,0,2.301,1.035,2.301,2.3C343.07,217.404,342.035,218.44,340.77,218.44z"/>
			</g>
			<g>
				<g>
					<rect x="346.024" y="181.09" style="fill-rule:evenodd;clip-rule:evenodd;fill:#52647C;" width="8.047" height="40.339"/>
					<rect x="344.814" y="181.09" style="fill-rule:evenodd;clip-rule:evenodd;fill:#52647C;" width="8.047" height="40.339"/>
					<rect x="345.44" y="181.09" style="fill-rule:evenodd;clip-rule:evenodd;fill:#677C99;" width="8.047" height="40.339"/>
				</g>
				<rect x="346.323" y="183.02" style="fill-rule:evenodd;clip-rule:evenodd;fill:#FFFFFF;" width="6.24" height="24.201"/>
				<path style="fill-rule:evenodd;clip-rule:evenodd;fill:#FFFFFF;" d="M349.443,218.44c-1.265,0-2.301-1.035-2.301-2.3
					c0-1.265,1.035-2.3,2.301-2.3c1.265,0,2.3,1.035,2.3,2.3C351.743,217.404,350.708,218.44,349.443,218.44z"/>
			</g>
			<g>
				<g>
					<rect x="354.697" y="181.09" style="fill-rule:evenodd;clip-rule:evenodd;fill:#52647C;" width="8.047" height="40.339"/>
					<rect x="353.487" y="181.09" style="fill-rule:evenodd;clip-rule:evenodd;fill:#52647C;" width="8.047" height="40.339"/>
					<rect x="354.113" y="181.09" style="fill-rule:evenodd;clip-rule:evenodd;fill:#677C99;" width="8.047" height="40.339"/>
				</g>
				<rect x="354.995" y="183.02" style="fill-rule:evenodd;clip-rule:evenodd;fill:#FFFFFF;" width="6.239" height="24.201"/>
				<path style="fill-rule:evenodd;clip-rule:evenodd;fill:#FFFFFF;" d="M358.115,218.44c-1.265,0-2.301-1.035-2.301-2.3
					c0-1.265,1.035-2.3,2.301-2.3s2.3,1.035,2.3,2.3C360.415,217.404,359.38,218.44,358.115,218.44z"/>
			</g>
			<g>
				<g>
					<rect x="363.37" y="181.09" style="fill-rule:evenodd;clip-rule:evenodd;fill:#52647C;" width="8.047" height="40.339"/>
					<rect x="362.16" y="181.09" style="fill-rule:evenodd;clip-rule:evenodd;fill:#52647C;" width="8.047" height="40.339"/>
					<rect x="362.786" y="181.09" style="fill-rule:evenodd;clip-rule:evenodd;fill:#677C99;" width="8.047" height="40.339"/>
				</g>
				<rect x="363.668" y="183.02" style="fill-rule:evenodd;clip-rule:evenodd;fill:#FFFFFF;" width="6.239" height="24.201"/>
				<path style="fill-rule:evenodd;clip-rule:evenodd;fill:#FFFFFF;" d="M366.788,218.44c-1.265,0-2.3-1.035-2.3-2.3
					c0-1.265,1.035-2.3,2.3-2.3c1.265,0,2.301,1.035,2.301,2.3C369.088,217.404,368.053,218.44,366.788,218.44z"/>
			</g>
			<g>
				<g>
					<rect x="372.042" y="181.09" style="fill-rule:evenodd;clip-rule:evenodd;fill:#52647C;" width="8.047" height="40.339"/>
					<rect x="370.832" y="181.09" style="fill-rule:evenodd;clip-rule:evenodd;fill:#52647C;" width="8.047" height="40.339"/>
					<rect x="371.458" y="181.09" style="fill-rule:evenodd;clip-rule:evenodd;fill:#677C99;" width="8.047" height="40.339"/>
				</g>
				<rect x="372.341" y="183.02" style="fill-rule:evenodd;clip-rule:evenodd;fill:#FFFFFF;" width="6.24" height="24.201"/>
				<path style="fill-rule:evenodd;clip-rule:evenodd;fill:#FFFFFF;" d="M375.46,218.44c-1.265,0-2.3-1.035-2.3-2.3
					c0-1.265,1.035-2.3,2.3-2.3c1.266,0,2.301,1.035,2.301,2.3C377.761,217.404,376.726,218.44,375.46,218.44z"/>
			</g>
			<g>
				<g>
					<rect x="380.715" y="181.09" style="fill-rule:evenodd;clip-rule:evenodd;fill:#52647C;" width="8.047" height="40.339"/>
					<rect x="379.505" y="181.09" style="fill-rule:evenodd;clip-rule:evenodd;fill:#52647C;" width="8.047" height="40.339"/>
					<rect x="380.131" y="181.09" style="fill-rule:evenodd;clip-rule:evenodd;fill:#677C99;" width="8.047" height="40.339"/>
				</g>
				<rect x="381.014" y="183.02" style="fill-rule:evenodd;clip-rule:evenodd;fill:#FFFFFF;" width="6.239" height="24.201"/>
				<path style="fill-rule:evenodd;clip-rule:evenodd;fill:#FFFFFF;" d="M384.133,218.44c-1.265,0-2.3-1.035-2.3-2.3
					c0-1.265,1.035-2.3,2.3-2.3c1.265,0,2.3,1.035,2.3,2.3C386.434,217.404,385.399,218.44,384.133,218.44z"/>
			</g>
			<g>
				<g>
					<rect x="389.388" y="181.09" style="fill-rule:evenodd;clip-rule:evenodd;fill:#52647C;" width="8.047" height="40.339"/>
					<rect x="388.178" y="181.09" style="fill-rule:evenodd;clip-rule:evenodd;fill:#52647C;" width="8.047" height="40.339"/>
					<rect x="388.804" y="181.09" style="fill-rule:evenodd;clip-rule:evenodd;fill:#677C99;" width="8.047" height="40.339"/>
				</g>
				<rect x="389.686" y="183.02" style="fill-rule:evenodd;clip-rule:evenodd;fill:#FFFFFF;" width="6.239" height="24.201"/>
				<path style="fill-rule:evenodd;clip-rule:evenodd;fill:#FFFFFF;" d="M392.806,218.44c-1.265,0-2.3-1.035-2.3-2.3
					c0-1.265,1.035-2.3,2.3-2.3c1.265,0,2.3,1.035,2.3,2.3C395.106,217.404,394.071,218.44,392.806,218.44z"/>
			</g>
		</g>
		<path style="fill-rule:evenodd;clip-rule:evenodd;fill:#404041;" d="M243.106,195.913l-16.258,1.989c0,0-8.387-0.521-11.858,3.413
			c-3.471,3.934,2.405,5.824,4.397,14.231c1.185,4.999-4.719,16.825,3.124,24.76c1.735,3.471,1.041,13.19,1.041,13.19l19.554,0
			l19.553,0c0,0-0.694-9.719,1.041-13.19c7.843-7.935,1.939-19.761,3.124-24.76c1.992-8.407,7.868-10.297,4.397-14.231
			c-3.471-3.934-11.858-3.413-11.858-3.413L243.106,195.913z"/>
		<path style="fill-rule:evenodd;clip-rule:evenodd;fill:#404041;" d="M225.348,211.381c-0.578-1.62-7.294-13.191-10.358-10.066
			c-3.063,3.125-15.79,44.43-14.055,48.711c1.736,4.281,7.174,4.165,8.562,0.926C210.886,247.711,225.348,211.381,225.348,211.381z"
			/>
		<path style="fill-rule:evenodd;clip-rule:evenodd;fill:#404041;" d="M230.552,239.882c-8.041,0.424-23.033,1.601-26.148,1.388
			c-3.116-0.212-4.538,7.822-2.521,10.324c4.203,5.213,24.477-4.842,29.248-6.853L230.552,239.882z"/>
		<path style="fill-rule:evenodd;clip-rule:evenodd;fill:#E3E4E7;" d="M234.202,194.324l-10.071,3.577
			c0,0,6.083,17.766,6.378,17.124c0.295-0.642,9.759-5.869,12.597-7.439c2.838,1.569,12.302,6.797,12.597,7.439
			c0.295,0.642,6.378-17.124,6.378-17.124l-10.247-3.787C243.083,198.005,243.286,197.951,234.202,194.324z"/>
		<path style="fill-rule:evenodd;clip-rule:evenodd;fill:#E89063;" d="M237.315,180.112c0.776,5.201,0.752,11.196-5.028,16.11
			c-2.291,1.948,7.312,10.347,10.818,10.347c3.506,0,13.109-8.399,10.818-10.347c-5.779-4.914-5.804-10.909-5.028-16.11l-5.79,0.111
			L237.315,180.112z"/>
		<path style="fill-rule:evenodd;clip-rule:evenodd;fill:#F49869;" d="M226.589,144.516c-0.215,6.698-0.975,24.201,3.256,31.493
			c8.299,14.303,17.988,14.303,26.287,0c4.231-7.292,3.471-24.795,3.256-31.493l-15.044-5.471L226.589,144.516z"/>
		<path style="fill-rule:evenodd;clip-rule:evenodd;fill:#F5A176;" d="M226.589,142.302c-0.215,6.698-0.975,24.201,3.256,31.494
			c8.299,14.303,17.988,14.303,26.287,0c4.231-7.293,3.471-24.795,3.256-31.494l-15.292-4.479L226.589,142.302z"/>
		<path style="fill-rule:evenodd;clip-rule:evenodd;fill:#F49869;" d="M260.931,159.144c-1.152,0-2.445,1.841-2.887,4.111
			c-0.442,2.271,0.134,4.111,1.286,4.111c1.153,0,2.445-1.841,2.887-4.111C262.66,160.984,262.084,159.144,260.931,159.144z"/>
		<path style="fill-rule:evenodd;clip-rule:evenodd;fill:#F5A176;" d="M226.4,152.404c0.053,7.597,0.695,16.651,3.445,21.391
			c8.299,14.303,17.988,14.303,26.287,0c2.75-4.74,3.392-13.794,3.445-21.391c-0.021-3.184-0.127-5.977-0.188-7.889l-15.292-6.693
			l-17.507,6.693C226.527,146.427,226.421,149.22,226.4,152.404z"/>
		<path style="fill-rule:evenodd;clip-rule:evenodd;fill:#404041;" d="M249.497,146.294c-4.73,8.28-24.402,17.965-25.074,16.414
			c-2.038-4.705-2.545-12.318-0.611-17.208c3.804-9.615,16.927-14.32,27.297-9.725c18.137-0.001,15.573,27.725,10.76,28.761
			C258.82,165.191,250.29,148.276,249.497,146.294z"/>
		<path style="fill-rule:evenodd;clip-rule:evenodd;fill:#312D2C;" d="M235.192,166.371c0.972,0,1.764-1.079,1.764-2.401
			c0-1.322-0.792-2.401-1.764-2.401c-0.972,0-1.764,1.078-1.764,2.401C233.428,165.292,234.221,166.371,235.192,166.371z"/>
		<path style="fill-rule:evenodd;clip-rule:evenodd;fill:#312D2C;" d="M251.333,166.371c0.972,0,1.764-1.079,1.764-2.401
			c0-1.322-0.792-2.401-1.764-2.401c-0.972,0-1.764,1.078-1.764,2.401C249.568,165.292,250.361,166.371,251.333,166.371z"/>
		<path style="fill-rule:evenodd;clip-rule:evenodd;fill:#404041;" d="M238.27,160.105c-0.631-0.154-2.225-0.497-3.925-0.307
			c-2.403,0.27-4.247,1.195-3.781,0.823c0.466-0.372,1.04-1.086,3.272-1.646c2.232-0.56,4.393-0.128,5.025,0.398
			C239.531,159.929,239.073,160.3,238.27,160.105z"/>
		<path style="fill-rule:evenodd;clip-rule:evenodd;fill:#404041;" d="M248.056,160.277c0.623-0.185,2.198-0.607,3.905-0.502
			c2.413,0.15,4.301,0.982,3.818,0.633c-0.484-0.349-1.093-1.033-3.35-1.482c-2.257-0.448-4.394,0.091-4.999,0.648
			C246.788,160.164,247.264,160.513,248.056,160.277z"/>
		<path style="fill-rule:evenodd;clip-rule:evenodd;fill:#D47B46;" d="M242.84,173.132c-1.033-0.055-3.511-0.789-2.73-1.121
			c0.781-0.332,3.529-0.087,4.484-0.463c0.954-0.376-1.331-8.289-0.897-7.769c0.434,0.521,2.343,7.696,2.053,8.188
			C245.303,172.728,243.874,173.187,242.84,173.132z"/>
		<path style="fill-rule:evenodd;clip-rule:evenodd;fill:#E3E4E7;" d="M247.9,176.212c-1.721,4.143-7.856,4.085-9.554,0
			C240.44,176.36,245.983,176.293,247.9,176.212z"/>
		<path style="fill-rule:evenodd;clip-rule:evenodd;fill:#404041;" d="M261.139,211.715c0.579-1.62,7.294-13.191,10.358-10.067
			c3.064,3.125,15.791,44.43,14.055,48.711c-1.735,4.281-7.173,4.165-8.562,0.925C275.602,248.045,261.139,211.715,261.139,211.715z
			"/>
		<rect x="73.46" y="250.344" style="fill-rule:evenodd;clip-rule:evenodd;fill:#EE7E22;" width="356.815" height="8.004"/>
		<rect x="88.381" y="255.057" style="fill-rule:evenodd;clip-rule:evenodd;fill:#A15E32;" width="326.974" height="120.099"/>
		<rect x="73.46" y="254.346" style="fill-rule:evenodd;clip-rule:evenodd;fill:#BB7031;" width="356.815" height="4.002"/>
		<path style="fill-rule:evenodd;clip-rule:evenodd;fill:#373635;" d="M223.061,241.896c1.466-0.092,2.86-0.178,4.012-0.249
			l0.179-1.574c-0.432,0.026-0.873,0.053-1.322,0.082c-1.092,0.068-2.229,0.142-3.387,0.217c-3.011,0.195-6.159,0.403-8.996,0.572
			c-0.794,0.047-1.564,0.092-2.3,0.132c-1.196,1.127-3.574,3.367-3.833,3.582c-0.347,0.289,4.917-2.083,4.917-2.083
			s0.207-0.013,0.576-0.036C214.488,242.437,219.044,242.147,223.061,241.896z"/>
		<path style="fill-rule:evenodd;clip-rule:evenodd;fill:#373635;" d="M213.547,240.942c1.472-3.672,3.172-7.923,4.814-12.037
			c0.82-2.053,1.625-4.072,2.381-5.967c0.537-3.721,1.828-7.091,1.828-7.091l-3.855,8.482l-0.772,1.7l-6.017,14.405
			c0,0-0.27,0.255-0.679,0.641C211.982,241.034,212.752,240.989,213.547,240.942z"/>
		<path style="fill-rule:evenodd;clip-rule:evenodd;fill:#373635;" d="M218.361,228.906c-0.033,3.954,0.818,8.029,4.15,11.4
			c0.011,0.021,0.021,0.043,0.031,0.065c1.158-0.075,2.295-0.148,3.387-0.217c0,0-4.227-6.952-5.211-11.927
			c-0.32-1.618-0.236-3.494,0.024-5.289C219.986,224.834,219.181,226.852,218.361,228.906z"/>
		<path style="fill-rule:evenodd;clip-rule:evenodd;fill:#D98456;" d="M237.474,187.141c-0.371,2.452-1.319,4.901-3.273,7.184
			c-0.554,0.647-1.189,1.281-1.914,1.898c-0.298,0.253-0.395,0.616-0.33,1.055c0.569,3.856,7.522,8.229,10.804,9.479
			c1.843-0.416,3.535-1.179,5.061-2.327c-2.151-1.729-4.317-4.548-5.178-7.403c-0.101-0.336-0.192-0.677-0.271-1.024
			c-0.257-1.126-0.393-2.306-0.393-3.522c0-1.474,0.201-2.896,0.574-4.233c2.21-0.021,4.287-0.662,6.096-1.775
			c-0.058-0.526-0.091-1.051-0.104-1.574c-1.812,1.208-3.648,1.821-5.484,1.837c-1.808,0.016-3.615-0.546-5.401-1.686
			C237.639,185.745,237.58,186.443,237.474,187.141z"/>
		<g>
			<rect x="216.667" y="250.124" style="fill-rule:evenodd;clip-rule:evenodd;fill:#94969A;" width="65.234" height="1.862"/>
			<polygon style="fill-rule:evenodd;clip-rule:evenodd;fill:#525253;" points="228.567,213.157 286.25,213.157 282.041,250.124 
				224.357,250.124 			"/>
			<polygon style="fill-rule:evenodd;clip-rule:evenodd;fill:#6E6E71;" points="229.391,213.149 287.075,213.149 282.866,250.116 
				225.182,250.116 			"/>
			<rect x="216.667" y="250.124" style="fill-rule:evenodd;clip-rule:evenodd;fill:#808185;" width="7.69" height="1.862"/>
			<path style="fill-rule:evenodd;clip-rule:evenodd;fill:#FFFFFF;" d="M256.128,234.817c1.91,0,3.469-1.558,3.469-3.469
				c0-1.91-1.559-3.469-3.469-3.469c-1.911,0-3.469,1.559-3.469,3.469C252.659,233.258,254.218,234.817,256.128,234.817z"/>
			<path style="fill-rule:evenodd;clip-rule:evenodd;fill:#5E6165;" d="M257.908,236.369c-8.235,4.495-18.423,7.587-29.645,8.691
				c-0.837,0.082-1.681,0.154-2.529,0.214l-0.242,2.128l-0.309,2.715h28.647h11.185h7.589h9.439h0.823l4.209-36.967h-9.01
				c-0.001,0.003-0.001,0.005-0.002,0.008c-1.375,5.973-4.944,11.493-10.17,16.219c-2.529,2.287-5.445,4.388-8.69,6.265
				C258.777,235.888,258.345,236.13,257.908,236.369z"/>
		</g>
		<g>
			<rect x="123.211" y="249.182" style="fill-rule:evenodd;clip-rule:evenodd;fill:#494C4F;" width="10.041" height="1.162"/>
			<g>
				<path style="fill-rule:evenodd;clip-rule:evenodd;fill:#64676B;" d="M128.419,221.09l-0.04,18.311l4.321,0.007l0.04-18.311
					L128.419,221.09L128.419,221.09z M129.803,238.615L129.803,238.615v0.174l-1.34-0.002l0-0.174L129.803,238.615L129.803,238.615z
					 M129.841,221.825L129.841,221.825l-0.001,0.174l-1.34-0.003l0.001-0.173L129.841,221.825L129.841,221.825z M129.193,222.243
					L129.193,222.243l-0.001,0.174l-0.694-0.001l0.001-0.174L129.193,222.243L129.193,222.243z M129.192,222.663L129.192,222.663
					v0.174l-0.695-0.001l0.001-0.175L129.192,222.663L129.192,222.663z M129.191,223.083L129.191,223.083l0,0.174l-0.694-0.001
					l0.001-0.173L129.191,223.083L129.191,223.083z M129.19,223.503L129.19,223.503l0,0.174l-0.694-0.002l0.001-0.173
					L129.19,223.503L129.19,223.503z M129.836,223.923L129.836,223.923l0,0.174l-1.341-0.002l0.001-0.174L129.836,223.923
					L129.836,223.923z M129.189,224.342L129.189,224.342l-0.001,0.174l-0.694-0.001l0.001-0.174L129.189,224.342L129.189,224.342z
					 M129.188,224.762L129.188,224.762l-0.001,0.174l-0.694-0.001l0-0.174L129.188,224.762L129.188,224.762z M129.186,225.182
					L129.186,225.182v0.173l-0.694-0.001l0-0.173L129.186,225.182L129.186,225.182z M129.186,225.601L129.186,225.601l-0.001,0.174
					l-0.694-0.001l0.001-0.174L129.186,225.601L129.186,225.601z M129.831,226.022L129.831,226.022l-0.001,0.174l-1.341-0.002
					l0-0.174L129.831,226.022L129.831,226.022z M129.184,226.441L129.184,226.441l0,0.174l-0.694-0.001l0.001-0.174L129.184,226.441
					L129.184,226.441z M129.183,226.861L129.183,226.861v0.174l-0.695-0.001l0.001-0.174L129.183,226.861L129.183,226.861z
					 M129.182,227.28L129.182,227.28l-0.001,0.174l-0.694-0.001l0.001-0.174L129.182,227.28L129.182,227.28z M129.181,227.7
					L129.181,227.7v0.174l-0.695-0.001l0.001-0.174L129.181,227.7L129.181,227.7z M129.826,228.121L129.826,228.121l0,0.174
					l-1.34-0.003v-0.174L129.826,228.121L129.826,228.121z M129.179,228.54L129.179,228.54v0.174l-0.695-0.001l0.001-0.173
					L129.179,228.54L129.179,228.54z M129.178,228.96L129.178,228.96l-0.001,0.174l-0.694-0.001l0.001-0.174L129.178,228.96
					L129.178,228.96z M129.178,229.38L129.178,229.38l-0.001,0.174l-0.694-0.001l0.001-0.174L129.178,229.38L129.178,229.38z
					 M129.176,229.799L129.176,229.799l-0.001,0.174l-0.693-0.002l0-0.173L129.176,229.799L129.176,229.799z M129.822,230.22
					L129.822,230.22l-0.001,0.174l-1.341-0.002l0.001-0.174L129.822,230.22L129.822,230.22z M129.175,230.639L129.175,230.639
					l-0.001,0.174l-0.695-0.001l0.001-0.174L129.175,230.639L129.175,230.639z M129.174,231.059L129.174,231.059l-0.001,0.174
					l-0.694-0.002l0.001-0.174L129.174,231.059L129.174,231.059z M129.173,231.478L129.173,231.478l0,0.174l-0.695-0.002
					l0.001-0.174L129.173,231.478L129.173,231.478z M129.172,231.898L129.172,231.898v0.174l-0.695-0.001l0.001-0.174
					L129.172,231.898L129.172,231.898z M129.817,232.319L129.817,232.319l-0.001,0.174l-1.341-0.002l0.001-0.174L129.817,232.319
					L129.817,232.319z M129.17,232.737L129.17,232.737v0.174l-0.695-0.001l0.001-0.174L129.17,232.737L129.17,232.737z
					 M129.169,233.157L129.169,233.157l0,0.174l-0.694-0.002l0-0.174L129.169,233.157L129.169,233.157z M129.168,233.577
					L129.168,233.577v0.174l-0.694-0.001l0.001-0.174L129.168,233.577L129.168,233.577z M129.167,233.997L129.167,233.997l0,0.174
					l-0.695-0.001l0.001-0.174L129.167,233.997L129.167,233.997z M129.813,234.417L129.813,234.417l0,0.174l-1.34-0.002l0-0.174
					L129.813,234.417L129.813,234.417z M129.165,234.836L129.165,234.836v0.174l-0.694-0.001l0-0.174L129.165,234.836
					L129.165,234.836z M129.164,235.256L129.164,235.256v0.174l-0.694-0.001v-0.174L129.164,235.256L129.164,235.256z
					 M129.163,235.675L129.163,235.675v0.174l-0.694-0.001l0-0.173L129.163,235.675L129.163,235.675z M129.163,236.095
					L129.163,236.095l-0.001,0.174l-0.694-0.001l0.001-0.174L129.163,236.095L129.163,236.095z M129.808,236.516L129.808,236.516
					v0.174l-1.34-0.002v-0.174L129.808,236.516L129.808,236.516z M129.161,236.935L129.161,236.935l0,0.174l-0.695-0.001v-0.174
					L129.161,236.935L129.161,236.935z M129.16,237.354L129.16,237.354v0.174l-0.694-0.001l0-0.173L129.16,237.354L129.16,237.354z
					 M129.16,237.774L129.16,237.774l-0.001,0.174l-0.694-0.002v-0.174L129.16,237.774L129.16,237.774z M129.158,238.194
					L129.158,238.194l0,0.174l-0.695-0.002l0-0.174L129.158,238.194z"/>
				<polygon style="fill-rule:evenodd;clip-rule:evenodd;fill:#858890;" points="131.514,239.406 132.7,239.408 132.739,221.097 
					131.514,221.095 				"/>
			</g>
			<g>
				<path style="fill-rule:evenodd;clip-rule:evenodd;fill:#ADB0B5;" d="M127.356,229.082l-1.029,0.081l-0.232-2.074
					c-0.008-0.063,0.012-0.124,0.055-0.172l0.174-0.083l0.519-0.039c0.141-0.011,0.268,0.085,0.281,0.214L127.356,229.082z"/>
				<path style="fill-rule:evenodd;clip-rule:evenodd;fill:#494C4F;" d="M128.307,230.153l-2.675,0.208l-0.209-1.841
					c-0.01-0.081,0.017-0.161,0.074-0.223c0.055-0.062,0.137-0.1,0.227-0.108l2.008-0.158c0.09-0.007,0.177,0.018,0.246,0.071
					c0.069,0.051,0.114,0.127,0.123,0.207L128.307,230.153z"/>
				<path style="fill-rule:evenodd;clip-rule:evenodd;fill:#262528;" d="M126.612,228.119l1.119-0.088
					c0.09-0.007,0.177,0.018,0.247,0.071c0.069,0.052,0.114,0.128,0.123,0.208l0.2,1.787l-1.502-0.307L126.612,228.119
					L126.612,228.119z"/>
				<polygon style="fill-rule:evenodd;clip-rule:evenodd;fill:#494C4F;" points="127.522,247.227 125.492,229.127 128.169,228.916 
					130.198,247.006 				"/>
				<polygon style="fill-rule:evenodd;clip-rule:evenodd;fill:#262528;" points="128.829,247.117 126.71,229.032 128.169,228.916 
					130.198,247.006 				"/>
				<polygon style="fill-rule:evenodd;clip-rule:evenodd;fill:#9EA0A7;" points="128.181,229.025 128.149,228.749 125.193,228.979 
					125.137,228.983 124.98,229.059 124.93,229.212 125.472,234.041 125.759,234.019 126.031,233.943 125.906,232.828 
					125.593,232.544 125.246,229.466 125.297,229.312 125.452,229.238 				"/>
			</g>
			<g>
				<polygon style="fill-rule:evenodd;clip-rule:evenodd;fill:#262528;" points="134.078,230.57 132.753,230.459 130.699,247.555 
					132.025,247.666 				"/>
				<polygon style="fill-rule:evenodd;clip-rule:evenodd;fill:#040C13;" points="133.415,230.515 132.753,230.459 130.699,247.555 
					131.362,247.611 				"/>
				<path style="fill-rule:evenodd;clip-rule:evenodd;fill:#262528;" d="M134.326,226.304c0.008-0.134-0.765-0.218-0.797-0.068
					l-1.062,5.48l1.551,0.13l-0.45,3.744l0.027,0.002c0.052-0.03,0.051-0.01,0.197-0.739c0.148-0.729,0.605-3.045,0.608-3.365
					C134.415,229.71,134.275,228.326,134.326,226.304z"/>
				<polygon style="fill-rule:evenodd;clip-rule:evenodd;fill:#444065;" points="134.056,231.541 132.393,231.4 132.357,231.707 
					134.019,231.847 				"/>
			</g>
			<g>
				<polygon style="fill-rule:evenodd;clip-rule:evenodd;fill:#081929;" points="121.73,231.293 126.054,244.519 127.601,244.166 
					123.276,230.938 122.418,230.858 				"/>
				<polygon style="fill-rule:evenodd;clip-rule:evenodd;fill:#163448;" points="121.73,231.293 126.054,244.519 126.827,244.343 
					122.375,230.722 				"/>
				<path style="fill-rule:evenodd;clip-rule:evenodd;fill:#F7C8B6;" d="M123.276,230.938l-1.805-2.979l0.258,3.32
					c0.106,0.098,0.25,0.283,0.378,0.258c0.245-0.05-0.018-0.516,0.32-0.596c0.328-0.076,0.412,0.439,0.642,0.387
					C123.281,231.279,123.276,230.938,123.276,230.938z"/>
				<path style="fill-rule:evenodd;clip-rule:evenodd;fill:#D2A69C;" d="M121.471,227.959l0.258,3.32
					c0.106,0.098,0.25,0.283,0.378,0.258c0.245-0.05-0.018-0.516,0.32-0.596l0.017-0.003L121.471,227.959z"/>
				<polygon style="fill-rule:evenodd;clip-rule:evenodd;fill:#292A2A;" points="122.02,228.864 121.471,227.959 121.549,228.972 
									"/>
			</g>
			<g>
				<polygon style="fill-rule:evenodd;clip-rule:evenodd;fill:#081929;" points="122.979,229.648 125.232,243.232 126.82,243.048 
					124.566,229.463 123.728,229.292 				"/>
				<polygon style="fill-rule:evenodd;clip-rule:evenodd;fill:#163448;" points="122.979,229.648 125.232,243.232 126.025,243.14 
					123.706,229.152 				"/>
				<path style="fill-rule:evenodd;clip-rule:evenodd;fill:#F7C8B6;" d="M124.566,229.463l-1.331-3.149l-0.255,3.32
					c0.09,0.109,0.205,0.308,0.335,0.296c0.251-0.023,0.062-0.514,0.409-0.556c0.338-0.04,0.34,0.48,0.578,0.453
					C124.519,229.802,124.566,229.463,124.566,229.463z"/>
				<path style="fill-rule:evenodd;clip-rule:evenodd;fill:#D2A69C;" d="M123.235,226.314l-0.255,3.32
					c0.09,0.109,0.205,0.308,0.335,0.296c0.251-0.023,0.062-0.514,0.409-0.556l0.017-0.001L123.235,226.314z"/>
				<polygon style="fill-rule:evenodd;clip-rule:evenodd;fill:#292A2A;" points="123.64,227.271 123.235,226.314 123.156,227.327 
									"/>
			</g>
			<path style="fill-rule:evenodd;clip-rule:evenodd;fill:#64676B;" d="M134.216,235.059v13.665c0,0.592-0.445,1.08-0.986,1.08
				h-10.02c-0.543,0-0.988-0.487-0.988-1.08v-13.665H134.216z"/>
			<rect x="122.223" y="235.059" style="fill-rule:evenodd;clip-rule:evenodd;fill:#262528;" width="11.993" height="1.458"/>
			<path style="fill-rule:evenodd;clip-rule:evenodd;fill:#787980;" d="M134.216,248.724l0-12.207h-5.996v13.287h5.011
				C133.771,249.804,134.216,249.317,134.216,248.724z"/>
			<rect x="128.22" y="235.059" style="fill-rule:evenodd;clip-rule:evenodd;fill:#444749;" width="5.996" height="1.458"/>
		</g>
		<g>
			<rect x="135.166" y="245.614" style="fill-rule:evenodd;clip-rule:evenodd;fill:#756042;" width="26.805" height="4.73"/>
			<rect x="134.166" y="243.249" style="fill-rule:evenodd;clip-rule:evenodd;fill:#F8C496;" width="26.805" height="2.365"/>
			<rect x="138.206" y="240.095" style="fill-rule:evenodd;clip-rule:evenodd;fill:#95472F;" width="26.805" height="3.154"/>
			<rect x="137.206" y="238.518" style="fill-rule:evenodd;clip-rule:evenodd;fill:#C1E2CF;" width="26.805" height="1.577"/>
		</g>
		<rect x="80.851" y="370.453" style="fill-rule:evenodd;clip-rule:evenodd;fill:#683C23;" width="342.035" height="7.767"/>
		<g>
			<g>
				<g>
					<path style="fill-rule:evenodd;clip-rule:evenodd;fill:#D6DE5F;" d="M115.185,190.477c-1.59-1.406-0.661-4.432-1.846-6.471
						c0,0,2.023,0.529,3.664,2.59C119.665,189.94,117.386,192.424,115.185,190.477z"/>
					<path style="fill-rule:evenodd;clip-rule:evenodd;fill:#B9BE4E;" d="M115.185,190.477c-1.59-1.406-0.661-4.432-1.845-6.471
						c1.883,1.906,2.497,2.761,3.253,5.606c0.182,0.685,0.225,1.22,0.23,1.546C116.33,191.188,115.755,190.981,115.185,190.477z"/>
				</g>
				<g>
					<path style="fill-rule:evenodd;clip-rule:evenodd;fill:#D6DE5F;" d="M112.496,195.401c-1.665-1.454-0.574-4.517-1.784-6.609
						c0,0,2.155,0.569,3.854,2.69C117.321,194.923,114.799,197.414,112.496,195.401z"/>
					<path style="fill-rule:evenodd;clip-rule:evenodd;fill:#B9BE4E;" d="M112.496,195.401c-1.665-1.454-0.574-4.517-1.784-6.609
						c1.964,1.967,2.596,2.846,3.322,5.752c0.175,0.699,0.205,1.244,0.2,1.576C113.703,196.141,113.092,195.922,112.496,195.401z"/>
				</g>
				<g>
					<path style="fill-rule:evenodd;clip-rule:evenodd;fill:#D6DE5F;" d="M110.004,201.23c-1.819-1.59-0.628-4.938-1.95-7.224
						c0,0,2.356,0.622,4.212,2.941C115.278,200.708,112.521,203.431,110.004,201.23z"/>
					<path style="fill-rule:evenodd;clip-rule:evenodd;fill:#B9BE4E;" d="M110.004,201.23c-1.819-1.59-0.628-4.938-1.95-7.224
						c2.146,2.15,2.838,3.111,3.63,6.287c0.191,0.765,0.224,1.36,0.219,1.723C111.323,202.039,110.655,201.8,110.004,201.23z"/>
				</g>
				<g>
					<path style="fill-rule:evenodd;clip-rule:evenodd;fill:#D6DE5F;" d="M103.295,190.813c1.718-1.21,0.992-4.215,2.343-6.073
						c0,0-2.095,0.324-3.911,2.162C98.779,189.883,100.917,192.489,103.295,190.813z"/>
					<path style="fill-rule:evenodd;clip-rule:evenodd;fill:#B9BE4E;" d="M103.295,190.813c1.718-1.21,0.992-4.215,2.343-6.073
						c-2.052,1.665-2.738,2.434-3.712,5.11c-0.235,0.644-0.317,1.156-0.345,1.471C102.08,191.394,102.679,191.247,103.295,190.813z"
						/>
				</g>
				<path style="fill-rule:evenodd;clip-rule:evenodd;fill:#9A402E;" d="M103.119,187.287c-1.316,1.583-1.817,4.421-1.7,5.394
					c0.014,0.098,0.028,0.244,0.155,0.229c0.123-0.023,0.097-0.16,0.086-0.259C101.472,191.21,102.17,189.011,103.119,187.287z"/>
				<g>
					<path style="fill-rule:evenodd;clip-rule:evenodd;fill:#D6DE5F;" d="M99.041,194.704c-2.049,0.895-4.382-1.425-6.818-1.22
						c0,0,1.451-1.726,4.126-2.365C100.687,190.082,101.877,193.465,99.041,194.704z"/>
					<path style="fill-rule:evenodd;clip-rule:evenodd;fill:#B9BE4E;" d="M99.041,194.704c-2.049,0.895-4.382-1.425-6.818-1.22
						c2.648-0.948,3.726-1.147,6.697-0.557c0.716,0.142,1.227,0.35,1.528,0.498C100.239,193.919,99.775,194.383,99.041,194.704z"/>
				</g>
				<path style="fill-rule:evenodd;clip-rule:evenodd;fill:#9A402E;" d="M94.624,192.806c3.167-0.955,6.324,0.381,7.633,1.013
					c0.13,0.068,0.329,0.157,0.246,0.328c-0.092,0.161-0.271,0.059-0.405-0.004C100.166,193.185,97.461,192.349,94.624,192.806z"/>
				<g>
					<path style="fill-rule:evenodd;clip-rule:evenodd;fill:#D6DE5F;" d="M102.914,207.05c-2.545,0.3-4.331-3.02-7.071-3.607
						c0,0,2.166-1.41,5.311-1.221C106.256,202.53,106.436,206.635,102.914,207.05z"/>
					<path style="fill-rule:evenodd;clip-rule:evenodd;fill:#B9BE4E;" d="M102.914,207.05c-2.545,0.3-4.331-3.02-7.07-3.607
						c3.219-0.158,4.467-0.018,7.529,1.619c0.738,0.394,1.229,0.792,1.51,1.054C104.489,206.588,103.825,206.943,102.914,207.05z"/>
				</g>
				<g>
					<path style="fill-rule:evenodd;clip-rule:evenodd;fill:#D6DE5F;" d="M97.617,190.596c-2.229-0.186-3.179-3.336-5.42-4.313
						c0,0,2.097-0.83,4.754-0.121C101.261,187.311,100.702,190.854,97.617,190.596z"/>
					<path style="fill-rule:evenodd;clip-rule:evenodd;fill:#B9BE4E;" d="M97.617,190.596c-2.229-0.186-3.179-3.336-5.42-4.313
						c2.78,0.424,3.823,0.761,6.158,2.692c0.562,0.465,0.914,0.891,1.109,1.164C99.045,190.475,98.416,190.663,97.617,190.596z"/>
				</g>
				<g>
					<path style="fill-rule:evenodd;clip-rule:evenodd;fill:#D6DE5F;" d="M113.368,187.374c1.943-1.691,0.68-5.263,2.095-7.697
						c0,0-2.513,0.658-4.497,3.126C107.747,186.805,110.679,189.714,113.368,187.374z"/>
					<path style="fill-rule:evenodd;clip-rule:evenodd;fill:#B9BE4E;" d="M113.368,187.374c1.943-1.691,0.68-5.263,2.095-7.697
						c-2.293,2.288-3.032,3.311-3.884,6.695c-0.205,0.815-0.242,1.45-0.237,1.836C111.96,188.233,112.672,187.979,113.368,187.374z"
						/>
				</g>
				<path style="fill-rule:evenodd;clip-rule:evenodd;fill:#9A402E;" d="M95.73,187.192c7.261,3.582,11.203,15.302,12.558,24.511
					c-0.158-8.867,1.582-23.054,4.299-28.277c-2.978,9.51-3.08,20.567-2.512,29.917c1.236-9.454,4.485-21.132,11.95-25.278
					c-9.159,6.27-11.471,26.188-10.821,36.604c0.03,0.714,3.375,1.816,2.486,1.924c-0.244,0.013-6.986,0.091-8.788-0.006
					c-0.889-0.108,2.401-1.593,2.431-2.307C107.984,213.865,105.304,193.243,95.73,187.192z"/>
				<g>
					<path style="fill-rule:evenodd;clip-rule:evenodd;fill:#D6DE5F;" d="M115.69,207.063c2.543,0.329,4.368-2.972,7.115-3.528
						c0,0-2.151-1.436-5.299-1.282C112.398,202.503,112.171,206.608,115.69,207.063z"/>
					<path style="fill-rule:evenodd;clip-rule:evenodd;fill:#B9BE4E;" d="M115.69,207.063c2.543,0.329,4.368-2.972,7.115-3.528
						c-3.219-0.195-4.469-0.069-7.551,1.533c-0.742,0.385-1.239,0.778-1.523,1.037C114.12,206.583,114.779,206.946,115.69,207.063z"
						/>
				</g>
				<g>
					<path style="fill-rule:evenodd;clip-rule:evenodd;fill:#D6DE5F;" d="M120.623,191.127c2.209-0.208,3.287-3.335,5.543-4.327
						c0,0-2.034-0.799-4.688-0.069C117.172,187.914,117.566,191.415,120.623,191.127z"/>
					<path style="fill-rule:evenodd;clip-rule:evenodd;fill:#B9BE4E;" d="M120.623,191.127c2.209-0.208,3.287-3.335,5.543-4.327
						c-2.764,0.449-3.809,0.794-6.199,2.73c-0.576,0.466-0.942,0.892-1.146,1.164C119.219,191.022,119.832,191.201,120.623,191.127z
						"/>
				</g>
				<path style="fill-rule:evenodd;clip-rule:evenodd;fill:#823528;" d="M112.588,183.427c-2.517,8.41-3.073,20.576-2.512,29.917
					c1.236-9.454,4.485-21.132,11.95-25.278c-5.173,3.542-8.162,11.438-9.666,19.516c1.201-1.719,3.943-3.734,6.758-3.979
					c-2.283,0.337-5.587,2.544-6.9,4.764c-1.04,5.968-1.284,11.961-1.013,16.303c0.03,0.714,3.375,1.816,2.486,1.924
					c-0.131,0.007-2.134,0.033-4.24,0.04C108.271,211.221,109.326,190.227,112.588,183.427z"/>
				<path style="fill-rule:evenodd;clip-rule:evenodd;fill:#823528;" d="M117.587,186.938c-2.43-0.617-5.791,2.476-6.676,3.52
					c-0.086,0.108-0.223,0.261-0.087,0.376c0.14,0.103,0.256-0.053,0.347-0.158C112.469,189.114,115.454,186.603,117.587,186.938z"
					/>
				<g>
					<path style="fill-rule:evenodd;clip-rule:evenodd;fill:#D6DE5F;" d="M119.61,195.575c2.119,0.629,4.125-1.93,6.539-2.026
						c0,0-1.633-1.517-4.334-1.818C117.434,191.243,116.678,194.705,119.61,195.575z"/>
					<path style="fill-rule:evenodd;clip-rule:evenodd;fill:#B9BE4E;" d="M119.61,195.575c2.119,0.629,4.125-1.93,6.539-2.026
						c-2.712-0.607-3.794-0.672-6.637,0.269c-0.684,0.226-1.161,0.492-1.439,0.674C118.34,194.951,118.851,195.35,119.61,195.575z"
						/>
				</g>
				<path style="fill-rule:evenodd;clip-rule:evenodd;fill:#823528;" d="M122.726,193.109c-2.873-0.133-6.334,2.039-7.703,3.973
					c-0.099,0.124-0.255,0.299-0.1,0.431c0.161,0.118,0.294-0.06,0.398-0.181C117.026,194.914,120.419,193.204,122.726,193.109z"/>
				<path style="fill-rule:evenodd;clip-rule:evenodd;fill:#823528;" d="M115.524,186.694c1.316,1.723,1.766,5.655,1.418,6.915
					c-0.038,0.126-0.086,0.316-0.25,0.271c-0.157-0.055-0.096-0.23-0.062-0.359C117.165,191.657,116.471,188.444,115.524,186.694z"
					/>
				<path style="fill-rule:evenodd;clip-rule:evenodd;fill:#823528;" d="M112.744,191.165c2,2.55,1.636,6.992,1.356,8.535
					c-0.033,0.155-0.068,0.387-0.27,0.35c-0.193-0.049-0.14-0.265-0.113-0.422C114.156,197.343,114.141,193.288,112.744,191.165z"/>
				<path style="fill-rule:evenodd;clip-rule:evenodd;fill:#823528;" d="M110.535,197.045c1.581,2.531,1.698,7.584,1.396,9.122
					c-0.035,0.154-0.074,0.386-0.275,0.346c-0.193-0.052-0.136-0.267-0.107-0.424C112.021,203.812,111.609,199.241,110.535,197.045z
					"/>
				<g>
					<path style="fill-rule:evenodd;clip-rule:evenodd;fill:#D6DE5F;" d="M106.556,189.75c-2.167-0.55-2.586-3.814-4.636-5.146
						c0,0,2.205-0.473,4.709,0.663C110.691,187.11,109.557,190.512,106.556,189.75z"/>
					<path style="fill-rule:evenodd;clip-rule:evenodd;fill:#B9BE4E;" d="M106.556,189.75c-2.167-0.55-2.586-3.814-4.635-5.146
						c2.672,0.876,3.646,1.38,5.631,3.669c0.478,0.551,0.754,1.029,0.902,1.331C107.984,189.865,107.333,189.947,106.556,189.75z"/>
				</g>
				<path style="fill-rule:evenodd;clip-rule:evenodd;fill:#9A402E;" d="M104.781,185.779c2.518,1.072,4.723,4.975,5.279,6.441
					c0.052,0.149,0.141,0.367-0.05,0.439c-0.191,0.058-0.256-0.155-0.314-0.304C108.893,190.172,106.919,187.157,104.781,185.779z"
					/>
				<g>
					<path style="fill-rule:evenodd;clip-rule:evenodd;fill:#D6DE5F;" d="M105.373,195.865c-2.222-0.248-3.085-3.423-5.298-4.462
						c0,0,2.12-0.771,4.756,0.011C109.107,192.684,108.45,196.209,105.373,195.865z"/>
					<path style="fill-rule:evenodd;clip-rule:evenodd;fill:#B9BE4E;" d="M105.373,195.865c-2.222-0.248-3.085-3.423-5.298-4.462
						c2.767,0.501,3.801,0.867,6.08,2.863c0.549,0.48,0.889,0.916,1.076,1.194C106.804,195.784,106.17,195.954,105.373,195.865z"/>
				</g>
				<path style="fill-rule:evenodd;clip-rule:evenodd;fill:#9A402E;" d="M102.843,192.085c3.858,1.372,5.707,4.904,6.263,6.37
					c0.052,0.149,0.36,0.6,0.168,0.671c-0.191,0.058-0.257,0.383-0.315,0.235C107.998,196.039,105.082,192.918,102.843,192.085z"/>
				<g>
					<path style="fill-rule:evenodd;clip-rule:evenodd;fill:#D6DE5F;" d="M113.312,195.159c2.127,0.156,3.489-2.669,5.744-3.258
						c0,0-1.852-1.093-4.459-0.819C110.368,191.526,110.369,194.944,113.312,195.159z"/>
					<path style="fill-rule:evenodd;clip-rule:evenodd;fill:#B9BE4E;" d="M113.312,195.159c2.127,0.156,3.489-2.669,5.744-3.258
						c-2.681-0.013-3.713,0.149-6.198,1.622c-0.598,0.354-0.992,0.703-1.217,0.932C111.986,194.833,112.55,195.104,113.312,195.159z
						"/>
				</g>
				<path style="fill-rule:evenodd;clip-rule:evenodd;fill:#823528;" d="M116.359,192.055c-3.118,0.402-5.504,2.809-6.266,4.125
					c-0.073,0.135-0.192,0.329-0.017,0.448c0.177,0.104,0.273-0.091,0.351-0.224C111.537,194.439,113.864,192.707,116.359,192.055z"
					/>
				<g>
					<path style="fill-rule:evenodd;clip-rule:evenodd;fill:#D6DE5F;" d="M116.516,201.445c2.392-0.071,3.588-3.383,6.039-4.299
						c0,0-2.194-1.007-5.074-0.402C112.81,197.726,113.205,201.544,116.516,201.445z"/>
					<path style="fill-rule:evenodd;clip-rule:evenodd;fill:#B9BE4E;" d="M116.516,201.445c2.392-0.071,3.588-3.383,6.039-4.299
						c-2.995,0.294-4.129,0.594-6.735,2.525c-0.627,0.464-1.027,0.9-1.251,1.181C114.998,201.233,115.659,201.47,116.516,201.445z"
						/>
				</g>
				<path style="fill-rule:evenodd;clip-rule:evenodd;fill:#823528;" d="M119.308,197.699c-2.499,0.577-5.398,3.357-6.216,4.559
					c-0.079,0.123-0.206,0.3-0.05,0.407c0.16,0.093,0.265-0.084,0.349-0.205C114.587,200.664,117.156,198.507,119.308,197.699z"/>
				<g>
					<path style="fill-rule:evenodd;clip-rule:evenodd;fill:#D6DE5F;" d="M112.926,201.859c2.363-0.501,2.956-4.005,5.226-5.356
						c0,0-2.36-0.606-5.112,0.513C108.576,198.831,109.654,202.552,112.926,201.859z"/>
					<path style="fill-rule:evenodd;clip-rule:evenodd;fill:#B9BE4E;" d="M112.926,201.859c2.363-0.501,2.956-4.005,5.225-5.356
						c-2.922,0.831-3.995,1.333-6.235,3.719c-0.54,0.574-0.859,1.078-1.031,1.398C111.379,201.922,112.079,202.038,112.926,201.859z
						"/>
				</g>
				<path style="fill-rule:evenodd;clip-rule:evenodd;fill:#823528;" d="M115.335,197.488c-3.202,1.331-5.303,4.893-5.859,6.359
					c-0.052,0.149-0.141,0.367,0.05,0.439c0.191,0.058,0.257-0.155,0.314-0.303C110.643,201.8,112.761,198.84,115.335,197.488z"/>
				<g>
					<path style="fill-rule:evenodd;clip-rule:evenodd;fill:#D6DE5F;" d="M100.644,201.671c-2.063,1.523-5.261-0.476-7.932,0.373
						c0,0,1.182-2.3,4.009-3.695C101.306,196.086,103.499,199.563,100.644,201.671z"/>
					<path style="fill-rule:evenodd;clip-rule:evenodd;fill:#B9BE4E;" d="M100.644,201.671c-2.063,1.523-5.261-0.476-7.932,0.373
						c2.718-1.734,3.872-2.232,7.344-2.329c0.836-0.024,1.461,0.078,1.835,0.167C101.783,200.488,101.383,201.126,100.644,201.671z"
						/>
				</g>
				<path style="fill-rule:evenodd;clip-rule:evenodd;fill:#8C3D2B;" d="M96.645,200.253c3.154-1.653,6.924-0.001,8.233,0.632
					c0.13,0.067,0.329,0.157,0.246,0.328c-0.092,0.161-0.189,0.278-0.323,0.215C102.869,200.47,99.399,199.208,96.645,200.253z"/>
				<g>
					<path style="fill-rule:evenodd;clip-rule:evenodd;fill:#D6DE5F;" d="M106.838,195.279c1.934-0.823,1.853-3.914,3.564-5.447
						c0,0-2.116-0.122-4.278,1.294C102.618,193.423,104.162,196.419,106.838,195.279z"/>
					<path style="fill-rule:evenodd;clip-rule:evenodd;fill:#B9BE4E;" d="M106.838,195.279c1.934-0.823,1.853-3.914,3.564-5.447
						c-2.356,1.199-3.187,1.807-4.7,4.219c-0.365,0.581-0.552,1.064-0.646,1.365C105.528,195.592,106.145,195.574,106.838,195.279z"
						/>
				</g>
				<path style="fill-rule:evenodd;clip-rule:evenodd;fill:#9A402E;" d="M108.082,191.203c-2.24,1.356-3.785,5.07-4.148,6.477
					c-0.033,0.143-0.092,0.352,0.091,0.399c0.182,0.034,0.22-0.169,0.259-0.312C104.802,195.675,106.394,192.679,108.082,191.203z"
					/>
				<path style="fill-rule:evenodd;clip-rule:evenodd;fill:#9A402E;" d="M100.08,203.673c2.964,0.269,6.184,3.276,7.003,4.477
					c0.079,0.124,0.206,0.301,0.05,0.407c-0.16,0.093-0.306,0.23-0.39,0.109C105.546,206.871,102.623,204.427,100.08,203.673z"/>
				<g>
					<path style="fill-rule:evenodd;clip-rule:evenodd;fill:#D6DE5F;" d="M105.304,203.128c-2.508-0.531-3.137-4.251-5.546-5.684
						c0,0,2.505-0.643,5.425,0.545C109.92,199.915,108.775,203.864,105.304,203.128z"/>
					<path style="fill-rule:evenodd;clip-rule:evenodd;fill:#B9BE4E;" d="M105.304,203.128c-2.508-0.531-3.137-4.251-5.545-5.684
						c3.101,0.882,4.239,1.414,6.617,3.946c0.573,0.609,0.911,1.144,1.094,1.483C106.944,203.195,106.202,203.318,105.304,203.128z"
						/>
				</g>
				<path style="fill-rule:evenodd;clip-rule:evenodd;fill:#8C3D2B;" d="M103.044,198.636c2.737,0.853,5.252,4.982,5.808,6.448
					c0.052,0.149,0.141,0.367-0.05,0.439c-0.191,0.058-0.256-0.155-0.314-0.304C107.684,203.036,105.366,199.886,103.044,198.636z"
					/>
			</g>
			<path style="fill-rule:evenodd;clip-rule:evenodd;fill:#FFFFFF;" d="M109.408,211.213L109.408,211.213h-5.495
				c8.353,18.543-12.065,22.138-1.603,39.132h7.098h0h7.097c10.462-16.993-9.955-20.589-1.603-39.132H109.408z"/>
			<path style="fill-rule:evenodd;clip-rule:evenodd;fill:#EAEAEB;" d="M109.31,211.213h-5.398
				c8.353,18.543-12.065,22.138-1.603,39.132h7.098h0h2.773C121.32,233.359,103.519,228.946,109.31,211.213z"/>
		</g>
		<polygon style="fill-rule:evenodd;clip-rule:evenodd;fill:#464748;" points="347.199,250.344 302.321,250.344 304.166,237.51 
			349.045,237.51 		"/>
		<polygon style="fill-rule:evenodd;clip-rule:evenodd;fill:#EAEAEA;" points="305.986,250.344 350.864,250.344 349.019,237.51 
			304.14,237.51 		"/>
		<rect x="88.381" y="258.348" style="fill-rule:evenodd;clip-rule:evenodd;fill:#945530;" width="326.975" height="9.94"/>
		<path style="fill-rule:evenodd;clip-rule:evenodd;fill:#413D3D;" d="M240.453,152.079c-4.958,4.75-14.238,8.874-13.71,8.669
			c0.528-0.205,7.469-7.421,7.122-7.213c-0.347,0.208-9.431,6.068-8.945,5.79c0.485-0.277,7.108-8.876,7.108-8.876l-9.042,7.153
			c0,0,4.605-9.545,6.963-13.324c2.358-3.779,4.264-5.028,4.022-4.854c-0.243,0.173-1.803,4.577-1.664,4.23
			c0.139-0.347,3.121-3.745,6.865-5.756c3.744-2.011,5.201-2.011,4.854-1.872c-0.347,0.139-5.79,8.46-5.79,8.46l6.484-4.507
			c0,0-3.225,5.166-2.982,4.993c0.242-0.173,2.912-2.323,5.062-4.264c2.15-1.942,2.809-3.468,2.809-3.468
			C248.487,143.277,244.935,147.785,240.453,152.079z"/>
		<path style="fill-rule:evenodd;clip-rule:evenodd;fill:#413D3D;" d="M251.375,146.219c0.243,0.728,3.146,8.173,5.548,10.749
			c2.401,2.576,4.091,4.057,3.779,3.71c-0.312-0.347-3.017-6.865-2.566-6.518c0.451,0.347,4.612,4.577,4.473,4.126
			c-0.139-0.451-3.363-11.061-3.363-11.061l3.398,3.398c0,0-2.201-6.154-5.027-9.24c-2.826-3.086-3.762-3.606-3.658-3.485
			c0.104,0.121,3.156,10.263,3.086,10.02c-0.069-0.243-2.67-3.745-2.635-3.537c0.035,0.208,1.04,5.686,0.797,5.305
			c-0.243-0.381-4.577-7.42-4.577-7.212C250.631,142.682,251.375,146.219,251.375,146.219z"/>
		<path style="fill-rule:evenodd;clip-rule:evenodd;fill:#EC1C24;" d="M242.761,206.756c-0.416-0.07-4.299-1.006-6.969,0.693
			c-2.67,1.699-3.294,3.606-3.294,3.606s1.087-0.421,1.595,0.451c0.508,0.872,0.278,0.867,2.531,1.109
			c2.254,0.243,5.027-3.779,5.755-3.883c0.728-0.104,1.838-0.138,3.346,0.763c1.508,0.901,3.155,3.277,4.213,3.38
			c1.057,0.104,0.278-1.734,0.919-1.89c0.641-0.156,2.393,0.521,2.514-0.728c0.121-1.248-2.133-2.93-4.629-3.606
			C246.246,205.976,242.761,206.756,242.761,206.756z"/>
		<path style="fill-rule:evenodd;clip-rule:evenodd;fill:#EC1C24;" d="M242.198,206.323c-0.274,0.28-0.698,1.177-0.427,2.002
			c0.271,0.824,1.016,0.841,1.71,0.867c0.694,0.026,1.136-1.162,1.049-1.933c-0.087-0.77-0.364-1.066-1.101-1.109
			C242.693,206.107,242.198,206.323,242.198,206.323z"/>
		<text transform="matrix(0.9915 0 0.1304 0.9915 309.453 248.7532)"><tspan x="0" y="0" style="fill:#231F20; font-family:'Bebas'; font-size:8.7542px;">R</tspan><tspan x="4.71" y="0" style="fill:#231F20; font-family:'Bebas'; font-size:8.7542px;">ECEPTION</tspan></text>
		<g>
			<path style="fill-rule:evenodd;clip-rule:evenodd;fill:#C96C38;" d="M102.324,273.503h59.87c2.38,0,4.328,1.947,4.328,4.328
				v83.648c0,2.381-1.948,4.328-4.328,4.328h-59.87c-2.38,0-4.328-1.947-4.328-4.328v-83.648
				C97.996,275.45,99.944,273.503,102.324,273.503z"/>
			<path style="fill-rule:evenodd;clip-rule:evenodd;fill:#C96C38;" d="M182.063,273.503h59.87c2.38,0,4.328,1.947,4.328,4.328
				v83.648c0,2.381-1.948,4.328-4.328,4.328h-59.87c-2.38,0-4.328-1.947-4.328-4.328v-83.648
				C177.735,275.45,179.683,273.503,182.063,273.503z"/>
			<path style="fill-rule:evenodd;clip-rule:evenodd;fill:#C96C38;" d="M261.803,273.503h59.87c2.381,0,4.328,1.947,4.328,4.328
				v83.648c0,2.381-1.947,4.328-4.328,4.328h-59.87c-2.38,0-4.328-1.947-4.328-4.328v-83.648
				C257.475,275.45,259.422,273.503,261.803,273.503z"/>
			<path style="fill-rule:evenodd;clip-rule:evenodd;fill:#C96C38;" d="M341.542,273.503h59.87c2.38,0,4.328,1.947,4.328,4.328
				v83.648c0,2.381-1.948,4.328-4.328,4.328h-59.87c-2.38,0-4.328-1.947-4.328-4.328v-83.648
				C337.214,275.45,339.162,273.503,341.542,273.503z"/>
		</g>
	</g>
</g>
<g id="DESIGNED_BY_FREEPIK">
	<g>
		<g id="XMLID_319_">
			<g id="XMLID_338_">
				<path id="XMLID_346_" style="fill:#1D262D;" d="M260.104,473.503c-0.432,0.443-0.803,0.931-1.108,1.453l-0.465-0.241
					c-0.067-0.298-0.349-0.503-0.659-0.466c-0.331,0.039-0.568,0.339-0.529,0.67c0.039,0.331,0.339,0.568,0.67,0.529
					c0.066-0.008,0.127-0.026,0.184-0.052l0.451,0.234c-0.251,0.554-0.433,1.139-0.539,1.744l0.747,0.132
					c0.23-1.306,0.85-2.507,1.792-3.473L260.104,473.503z"/>
				<path id="XMLID_345_" style="fill:#1D262D;" d="M265.592,471.201c-0.171,0-0.341,0.006-0.51,0.017l-0.074-0.626
					c0.188-0.149,0.296-0.389,0.266-0.645c-0.046-0.393-0.402-0.674-0.795-0.628c-0.393,0.046-0.674,0.402-0.628,0.795
					c0.03,0.254,0.189,0.461,0.404,0.564l0.074,0.624c-0.714,0.116-1.403,0.332-2.06,0.646l0.327,0.684
					c0.934-0.447,1.942-0.673,2.995-0.673c0.496,0,0.993,0.053,1.475,0.158l0.161-0.741
					C266.692,471.26,266.142,471.201,265.592,471.201z"/>
				<path id="XMLID_344_" style="fill:#1D262D;" d="M272.194,473.748c0.331-0.041,0.566-0.342,0.526-0.672
					c-0.04-0.331-0.341-0.566-0.672-0.526c-0.309,0.038-0.535,0.304-0.53,0.609l-0.416,0.363c-0.418-0.43-0.889-0.813-1.408-1.139
					l-0.404,0.641c1.134,0.715,2.021,1.726,2.563,2.925l0.69-0.313c-0.251-0.554-0.567-1.072-0.942-1.545l0.402-0.351
					C272.065,473.753,272.129,473.757,272.194,473.748z"/>
				<path id="XMLID_343_" style="fill:#1D262D;" d="M265.044,481.41c-0.386,0.023-0.775,0.035-1.157,0.035
					c-0.88,0-1.733-0.061-2.478-0.179c-0.39-0.062-0.846-0.155-1.27-0.292c1.046,1.861,3.069,3.125,5.388,3.125
					c2.855,0,5.262-1.916,5.95-4.504c-0.682,0.449-1.505,0.825-2.459,1.123C267.839,481.085,266.463,481.324,265.044,481.41z"/>
				<path id="XMLID_339_" style="fill:#1D262D;" d="M265.592,472.717c-3.352,0-6.08,2.666-6.08,5.944
					c0,0.426,0.046,0.849,0.137,1.261c0.673,0.483,2.706,0.89,5.348,0.731c2.879-0.173,5.297-0.957,6.672-2.159
					c-0.006-0.195-0.021-0.39-0.045-0.582C271.244,474.951,268.65,472.717,265.592,472.717z M263.432,479.232
					c-1.02,0-1.85-0.83-1.85-1.85c0-1.02,0.83-1.85,1.85-1.85c1.02,0,1.85,0.83,1.85,1.85
					C265.282,478.402,264.452,479.232,263.432,479.232z M268.17,478.324c-0.75,0-1.36-0.61-1.36-1.36c0-0.75,0.61-1.361,1.36-1.361
					c0.75,0,1.361,0.61,1.361,1.361C269.53,477.714,268.92,478.324,268.17,478.324z"/>
			</g>
			<path id="XMLID_336_" style="fill:#1D262D;" d="M281.595,474.585c-0.295-0.116-0.805-0.309-1.382-0.237
				c-0.551,0.069-0.844,0.341-0.844,1.007v0.866h2.228v1.717h-2.228v5.455h-1.932v-5.455h-1.34v-1.717h1.34v-0.888
				c0-1.68,0.896-2.783,2.568-2.783c0.643,0,1.157,0.122,1.59,0.308L281.595,474.585z"/>
			<path id="XMLID_334_" style="fill:#1D262D;" d="M286.298,477.917c-0.177-0.03-0.358-0.046-0.526-0.046
				c-0.896,0-1.51,0.548-1.51,1.613v3.908h-1.932v-7.172h1.873v0.785c0.451-0.673,1.14-0.977,2.021-0.977
				c0.414,0,0.848,0.127,1.094,0.337L286.298,477.917z"/>
			<path id="XMLID_331_" style="fill:#1D262D;" d="M293.965,479.795c0,0.222-0.015,0.489-0.037,0.651h-5.085
				c0.207,1.036,0.933,1.488,1.843,1.488c0.622,0,1.295-0.252,1.813-0.688l1.133,1.243c-0.814,0.748-1.85,1.088-3.057,1.088
				c-2.198,0-3.723-1.495-3.723-3.753c0-2.258,1.48-3.797,3.627-3.797C292.544,476.027,293.958,477.559,293.965,479.795z
				 M288.851,479.129h3.175c-0.177-0.918-0.733-1.436-1.562-1.436C289.554,477.693,289.021,478.24,288.851,479.129z"/>
			<path id="XMLID_328_" style="fill:#1D262D;" d="M301.618,479.795c0,0.222-0.015,0.489-0.037,0.651h-5.085
				c0.207,1.036,0.933,1.488,1.843,1.488c0.622,0,1.295-0.252,1.814-0.688l1.132,1.243c-0.814,0.748-1.85,1.088-3.057,1.088
				c-2.198,0-3.723-1.495-3.723-3.753c0-2.258,1.48-3.797,3.627-3.797C300.197,476.027,301.611,477.559,301.618,479.795z
				 M296.504,479.129h3.175c-0.178-0.918-0.733-1.436-1.562-1.436C297.207,477.693,296.674,478.24,296.504,479.129z"/>
			<path id="XMLID_325_" style="fill:#1D262D;" d="M309.964,479.802c0,2.154-1.495,3.775-3.471,3.775
				c-0.962,0-1.643-0.378-2.109-0.933v3.708h-1.924V476.22h1.887v0.792c0.466-0.585,1.155-0.984,2.139-0.984
				C308.469,476.027,309.964,477.648,309.964,479.802z M304.287,479.802c0,1.132,0.748,1.976,1.843,1.976
				c1.14,0,1.85-0.881,1.85-1.976c0-1.095-0.71-1.976-1.85-1.976C305.035,477.826,304.287,478.67,304.287,479.802z"/>
			<path id="XMLID_2_" style="fill:#1D262D;" d="M313.068,473.874c0,0.696-0.54,1.229-1.236,1.229c-0.696,0-1.229-0.533-1.229-1.229
				c0-0.696,0.533-1.243,1.229-1.243C312.527,472.63,313.068,473.178,313.068,473.874z M312.809,483.392h-1.932v-7.172h1.932
				V483.392z"/>
			<path id="XMLID_320_" style="fill:#1D262D;" d="M316.032,478.773l2.701-2.554h2.368l-3.479,3.375l3.501,3.797h-2.376
				l-2.716-2.901v2.901H314.1v-10.658h1.932V478.773z"/>
		</g>
		<g>
			<path style="fill:#1D262D;" d="M184.412,483.327v-1.055c-0.527,0.718-1.391,1.23-2.387,1.23c-1.846,0-3.149-1.406-3.149-3.706
				c0-2.256,1.289-3.721,3.149-3.721c0.952,0,1.816,0.469,2.387,1.245v-3.765h1.099v9.77H184.412z M184.412,481.408V478.2
				c-0.395-0.615-1.245-1.143-2.124-1.143c-1.421,0-2.27,1.172-2.27,2.739c0,1.567,0.85,2.724,2.27,2.724
				C183.168,482.521,184.017,482.023,184.412,481.408z"/>
			<path style="fill:#1D262D;" d="M186.932,479.782c0-2.051,1.465-3.706,3.486-3.706c2.139,0,3.398,1.67,3.398,3.794v0.279h-5.727
				c0.088,1.333,1.025,2.446,2.549,2.446c0.805,0,1.626-0.322,2.182-0.893l0.527,0.718c-0.703,0.703-1.655,1.084-2.812,1.084
				C188.44,483.503,186.932,481.994,186.932,479.782z M190.403,476.984c-1.509,0-2.256,1.274-2.314,2.358h4.643
				C192.718,478.288,192.015,476.984,190.403,476.984z"/>
			<path style="fill:#1D262D;" d="M194.607,482.389l0.571-0.791c0.469,0.542,1.362,1.011,2.329,1.011c1.084,0,1.67-0.513,1.67-1.216
				c0-1.714-4.38-0.659-4.38-3.281c0-1.098,0.952-2.036,2.636-2.036c1.201,0,2.051,0.454,2.622,1.025l-0.513,0.762
				c-0.424-0.513-1.201-0.894-2.109-0.894c-0.967,0-1.567,0.483-1.567,1.113c0,1.553,4.38,0.527,4.38,3.281
				c0,1.187-0.952,2.138-2.783,2.138C196.306,483.503,195.325,483.151,194.607,482.389z"/>
			<path style="fill:#1D262D;" d="M201.477,474.509c0-0.41,0.337-0.747,0.732-0.747c0.41,0,0.747,0.337,0.747,0.747
				c0,0.41-0.337,0.732-0.747,0.732C201.814,475.241,201.477,474.919,201.477,474.509z M201.667,483.327v-7.075h1.099v7.075H201.667
				z"/>
			<path style="fill:#1D262D;" d="M204.582,485.143l0.556-0.82c0.586,0.703,1.289,0.967,2.3,0.967c1.172,0,2.27-0.571,2.27-2.124
				v-1.011c-0.513,0.718-1.377,1.26-2.373,1.26c-1.845,0-3.149-1.377-3.149-3.662c0-2.27,1.289-3.676,3.149-3.676
				c0.952,0,1.802,0.469,2.373,1.245v-1.069h1.098v6.87c0,2.344-1.641,3.076-3.369,3.076
				C206.237,486.198,205.417,485.963,204.582,485.143z M209.709,481.291V478.2c-0.381-0.615-1.23-1.143-2.109-1.143
				c-1.421,0-2.27,1.128-2.27,2.695c0,1.553,0.849,2.695,2.27,2.695C208.478,482.448,209.328,481.906,209.709,481.291z"/>
			<path style="fill:#1D262D;" d="M217.413,483.327v-4.629c0-1.245-0.63-1.641-1.582-1.641c-0.865,0-1.685,0.527-2.095,1.099v5.17
				h-1.099v-7.075h1.099v1.025c0.498-0.586,1.464-1.201,2.519-1.201c1.48,0,2.256,0.747,2.256,2.285v4.966H217.413z"/>
			<path style="fill:#1D262D;" d="M219.932,479.782c0-2.051,1.465-3.706,3.486-3.706c2.139,0,3.398,1.67,3.398,3.794v0.279h-5.727
				c0.088,1.333,1.025,2.446,2.549,2.446c0.806,0,1.626-0.322,2.183-0.893l0.527,0.718c-0.703,0.703-1.655,1.084-2.812,1.084
				C221.441,483.503,219.932,481.994,219.932,479.782z M223.404,476.984c-1.509,0-2.256,1.274-2.314,2.358h4.643
				C225.718,478.288,225.015,476.984,223.404,476.984z"/>
			<path style="fill:#1D262D;" d="M233.35,483.327v-1.055c-0.527,0.718-1.392,1.23-2.388,1.23c-1.846,0-3.149-1.406-3.149-3.706
				c0-2.256,1.289-3.721,3.149-3.721c0.952,0,1.817,0.469,2.388,1.245v-3.765h1.098v9.77H233.35z M233.35,481.408V478.2
				c-0.396-0.615-1.245-1.143-2.124-1.143c-1.421,0-2.27,1.172-2.27,2.739c0,1.567,0.849,2.724,2.27,2.724
				C232.105,482.521,232.954,482.023,233.35,481.408z"/>
			<path style="fill:#1D262D;" d="M239.692,483.327v-9.77h1.098v3.765c0.572-0.776,1.421-1.245,2.388-1.245
				c1.845,0,3.149,1.465,3.149,3.721c0,2.299-1.304,3.706-3.149,3.706c-0.996,0-1.86-0.513-2.388-1.23v1.055H239.692z
				 M242.9,482.521c1.436,0,2.285-1.157,2.285-2.724c0-1.568-0.85-2.739-2.285-2.739c-0.864,0-1.728,0.527-2.109,1.143v3.208
				C241.171,482.023,242.036,482.521,242.9,482.521z"/>
			<path style="fill:#1D262D;" d="M247.528,485.099c0.161,0.073,0.425,0.117,0.601,0.117c0.483,0,0.805-0.161,1.055-0.747
				l0.469-1.069l-2.959-7.148h1.187l2.358,5.801l2.344-5.801h1.201l-3.545,8.51c-0.425,1.025-1.143,1.421-2.08,1.435
				c-0.234,0-0.601-0.044-0.805-0.103L247.528,485.099z"/>
		</g>
	</g>
</g>
</svg>
